<?xml version="1.0" standalone="no"?>
<!DOCTYPE svg PUBLIC "-//W3C//DTD SVG 20010904//EN"
 "http://www.w3.org/TR/2001/REC-SVG-20010904/DTD/svg10.dtd">
<svg version="1.0" xmlns="http://www.w3.org/2000/svg"
 width="200.000000pt" height="66.000000pt" viewBox="0 0 200.000000 66.000000"
 preserveAspectRatio="xMidYMid meet">

<g transform="translate(0.000000,66.000000) scale(0.100000,-0.100000)"
fill="#000000" stroke="none">
<path d="M0 330 l0 -250 250 0 c216 0 250 2 250 15 0 13 -33 15 -235 15 l-235
0 0 235 c0 202 -2 235 -15 235 -13 0 -15 -34 -15 -250z"/>
<path d="M1790 440 c0 -16 5 -21 23 -18 12 2 22 10 22 18 0 8 -10 16 -22 18
-18 3 -23 -2 -23 -18z"/>
<path d="M372 385 c-34 -36 -65 -65 -69 -65 -4 0 -31 10 -60 22 -48 20 -54 20
-66 6 -6 -9 -32 -42 -56 -73 -31 -39 -41 -59 -34 -66 8 -8 27 9 63 54 l52 65
55 -24 c64 -29 58 -32 146 69 33 38 47 61 40 68 -7 7 -31 -12 -71 -56z"/>
<path d="M654 422 c-28 -22 -44 -54 -44 -86 0 -29 42 -82 73 -92 12 -4 33 -16
48 -26 31 -23 94 -22 94 2 0 11 -9 14 -32 12 -41 -4 -41 2 -4 34 16 13 32 38
36 54 8 38 -18 94 -51 109 -36 16 -96 13 -120 -7z m104 -28 c15 -10 22 -25 22
-47 0 -40 -9 -53 -40 -65 -34 -13 -68 2 -80 33 -14 37 -13 43 15 70 28 29 51
31 83 9z"/>
<path d="M870 341 l0 -101 43 0 c60 0 114 17 132 43 23 33 19 91 -9 124 -21
24 -32 28 -95 31 l-71 4 0 -101z m113 58 c28 -15 37 -28 37 -58 0 -38 -28 -61
-72 -61 l-38 0 0 65 c0 63 1 65 26 65 14 0 35 -5 47 -11z"/>
<path d="M1564 425 c44 -116 80 -185 97 -185 21 0 27 10 74 120 32 75 33 80
14 80 -15 0 -28 -18 -53 -72 -28 -61 -35 -70 -41 -53 -39 99 -55 125 -76 125
-15 0 -19 -4 -15 -15z"/>
<path d="M1280 410 c0 -11 -4 -20 -10 -20 -5 0 -10 -7 -10 -15 0 -8 5 -15 10
-15 6 0 10 -20 10 -43 0 -50 25 -81 61 -75 31 4 36 26 7 30 -19 2 -23 10 -26
46 -3 37 -1 42 17 42 12 0 21 7 21 15 0 8 -9 15 -20 15 -13 0 -20 7 -20 20 0
13 -7 20 -20 20 -13 0 -20 -7 -20 -20z"/>
<path d="M1130 391 c-40 -11 -31 -35 14 -35 22 -1 41 -7 43 -13 3 -9 -6 -13
-27 -13 -41 0 -70 -16 -70 -40 0 -34 26 -49 85 -47 l55 1 0 56 c0 31 -6 63
-12 72 -16 19 -55 28 -88 19z m58 -98 c-4 -22 -58 -31 -58 -10 0 20 10 27 37
27 18 0 24 -5 21 -17z"/>
<path d="M1430 391 c-40 -11 -31 -35 14 -35 22 -1 41 -7 43 -13 3 -9 -7 -13
-30 -13 -20 0 -43 -7 -51 -16 -43 -43 17 -94 75 -64 13 7 19 7 19 0 0 -5 7
-10 15 -10 12 0 15 14 15 64 0 39 -5 67 -12 73 -19 15 -60 21 -88 14z m58 -98
c-4 -20 -35 -30 -50 -15 -15 15 0 32 28 32 19 0 25 -5 22 -17z"/>
<path d="M1913 392 c-29 -4 -45 -26 -41 -54 2 -18 12 -25 46 -32 54 -11 49
-32 -7 -29 -28 1 -41 -2 -41 -12 0 -29 76 -34 110 -7 29 24 20 60 -18 68 -47
10 -54 14 -49 27 2 6 19 12 37 12 18 0 35 5 37 11 4 12 -38 21 -74 16z"/>
<path d="M1790 315 c0 -68 2 -75 20 -75 18 0 20 7 20 75 0 68 -2 75 -20 75
-18 0 -20 -7 -20 -75z"/>
</g>
</svg>
